<svg width="620" height="90" viewBox="0 0 620 90" xmlns="http://www.w3.org/2000/svg">
  <defs>
    <linearGradient id="bg1" x1="0%" y1="0%" x2="100%" y2="100%">
      <stop offset="0%" style="stop-color:#1E293B"/>
      <stop offset="100%" style="stop-color:#334155"/>
    </linearGradient>
    <linearGradient id="bg2" x1="0%" y1="0%" x2="100%" y2="100%">
      <stop offset="0%" style="stop-color:#0C8F6A"/>
      <stop offset="100%" style="stop-color:#0FA87E"/>
    </linearGradient>
    <marker id="arr" markerWidth="7" markerHeight="7" refX="5" refY="3" orient="auto">
      <path d="M0,0 L0,6 L7,3 z" fill="#0FA87E"/>
    </marker>
  </defs>
  <rect width="620" height="90" fill="#0F172A" rx="10"/>
  <rect x="15" y="25" width="100" height="40" rx="6" fill="url(#bg1)" stroke="#334155" stroke-width="1"/>
  <text x="65" y="42" text-anchor="middle" font-family="monospace" font-size="10" fill="#94A3B8">Browser</text>
  <text x="65" y="57" text-anchor="middle" font-family="monospace" font-size="9" fill="#0FA87E">User / Admin</text>
  <line x1="117" y1="45" x2="148" y2="45" stroke="#0FA87E" stroke-width="1.2" marker-end="url(#arr)"/>
  <rect x="150" y="20" width="110" height="50" rx="6" fill="url(#bg1)" stroke="#0FA87E" stroke-width="1.2"/>
  <text x="205" y="40" text-anchor="middle" font-family="monospace" font-size="10" fill="#94A3B8">Frontend</text>
  <text x="205" y="55" text-anchor="middle" font-family="monospace" font-size="9" fill="#0FA87E">Vercel</text>
  <line x1="262" y1="45" x2="293" y2="45" stroke="#0FA87E" stroke-width="1.2" marker-end="url(#arr)"/>
  <text x="277" y="38" text-anchor="middle" font-family="monospace" font-size="8" fill="#475569">REST</text>
  <rect x="295" y="20" width="110" height="50" rx="6" fill="url(#bg2)" stroke="#F59E0B" stroke-width="1.2"/>
  <text x="350" y="40" text-anchor="middle" font-family="monospace" font-size="10" fill="#ffffff">Flask API</text>
  <text x="350" y="55" text-anchor="middle" font-family="monospace" font-size="9" fill="#FFF9C4">Vercel</text>
  <line x1="407" y1="45" x2="438" y2="45" stroke="#F59E0B" stroke-width="1.2" marker-end="url(#arr)"/>
  <rect x="440" y="20" width="110" height="50" rx="6" fill="url(#bg1)" stroke="#F59E0B" stroke-width="1.2"/>
  <text x="495" y="40" text-anchor="middle" font-family="monospace" font-size="10" fill="#94A3B8">PostgreSQL</text>
  <text x="495" y="55" text-anchor="middle" font-family="monospace" font-size="9" fill="#F59E0B">+ Redis</text>
</svg>
